<svg width="300" height="200" viewBox="0 0 300 200" xmlns="http://www.w3.org/2000/svg">
  <!-- Background -->
  <rect width="300" height="200" fill="#f8f9fa"/>
  
  <!-- Ground -->
  <ellipse cx="150" cy="180" rx="120" ry="8" fill="#e9ecef" opacity="0.5"/>
  
  <!-- Baby Stroller Body -->
  <path d="M80 120 Q85 110 95 110 L180 110 Q190 110 195 120 L195 140 Q195 150 185 150 L90 150 Q80 150 80 140 Z" fill="#2c3e50" stroke="#34495e" stroke-width="2"/>
  
  <!-- Seat -->
  <path d="M85 115 Q90 105 100 105 L175 105 Q185 105 190 115 L190 135 Q190 145 180 145 L95 145 Q85 145 85 135 Z" fill="#8B2865" stroke="#7B1E55" stroke-width="1"/>
  
  <!-- Seat Padding -->
  <ellipse cx="137.5" cy="125" rx="45" ry="15" fill="#A0336B" opacity="0.7"/>
  
  <!-- Handle -->
  <path d="M195 120 Q200 115 205 115 L220 115 Q230 115 235 120 L235 125 Q235 130 225 130 L210 130 Q200 130 195 125 Z" fill="#34495e" stroke="#2c3e50" stroke-width="1"/>
  
  <!-- Handle Grip -->
  <rect x="210" y="118" width="20" height="6" rx="3" fill="#7f8c8d"/>
  
  <!-- Canopy -->
  <path d="M75 90 Q75 70 95 70 L185 70 Q205 70 205 90 L205 110 L75 110 Z" fill="#27ae60" stroke="#229954" stroke-width="2"/>
  
  <!-- Canopy Support -->
  <path d="M95 70 Q140 65 185 70" stroke="#229954" stroke-width="2" fill="none"/>
  
  <!-- Front Wheel -->
  <circle cx="110" cy="165" r="18" fill="#34495e" stroke="#2c3e50" stroke-width="2"/>
  <circle cx="110" cy="165" r="12" fill="#7f8c8d"/>
  <circle cx="110" cy="165" r="6" fill="#95a5a6"/>
  
  <!-- Back Wheel -->
  <circle cx="165" cy="165" r="18" fill="#34495e" stroke="#2c3e50" stroke-width="2"/>
  <circle cx="165" cy="165" r="12" fill="#7f8c8d"/>
  <circle cx="165" cy="165" r="6" fill="#95a5a6"/>
  
  <!-- Wheel Spokes -->
  <g stroke="#bdc3c7" stroke-width="1">
    <line x1="104" y1="159" x2="116" y2="171"/>
    <line x1="116" y1="159" x2="104" y2="171"/>
    <line x1="110" y1="153" x2="110" y2="177"/>
    <line x1="98" y1="165" x2="122" y2="165"/>
    
    <line x1="159" y1="159" x2="171" y2="171"/>
    <line x1="171" y1="159" x2="159" y2="171"/>
    <line x1="165" y1="153" x2="165" y2="177"/>
    <line x1="153" y1="165" x2="177" y2="165"/>
  </g>
  
  <!-- Frame -->
  <path d="M110 147 L110 165" stroke="#34495e" stroke-width="3"/>
  <path d="M165 147 L165 165" stroke="#34495e" stroke-width="3"/>
  <path d="M110 147 Q137.5 140 165 147" stroke="#34495e" stroke-width="3" fill="none"/>
  
  <!-- Safety Belt -->
  <path d="M120 125 Q137.5 120 155 125" stroke="#e74c3c" stroke-width="3" fill="none"/>
  <circle cx="137.5" cy="122" r="3" fill="#c0392b"/>
  
  <!-- Small Details -->
  <circle cx="200" cy="125" r="2" fill="#f39c12"/>
  <rect x="85" y="135" width="4" height="4" rx="1" fill="#3498db"/>
  <rect x="185" y="135" width="4" height="4" rx="1" fill="#3498db"/>
</svg> 