<svg width="51" height="63" viewBox="0 0 51 63" fill="none" xmlns="http://www.w3.org/2000/svg">
    <path d="M44.9165 20.8376H41.1278V16.0206C41.1278 7.19847 34.0307 0 25.3327 0C16.6347 0 9.5376 7.19847 9.5376 16.0206V20.8376H5.74892C2.81402 20.8376 0.359375 23.2732 0.359375 26.3041V57.4794C0.359375 60.5103 2.76066 63 5.74892 63H44.9165C47.9047 63 50.3594 60.5103 50.3594 57.4794V26.3041C50.3594 23.3273 47.9047 20.8376 44.9165 20.8376ZM16.6347 16.0206C16.6347 11.2036 20.5301 7.25258 25.2793 7.25258C30.0285 7.25258 33.9239 11.2036 33.9239 16.0206V20.8376H16.5814V16.0206H16.6347ZM28.2142 48.549V56.5052C28.2142 56.8299 27.9474 57.1005 27.5739 57.1005H23.8386C23.5718 57.1005 23.2516 56.884 23.2516 56.5052V48.549C20.6902 47.5206 18.8226 45.0309 18.8226 42.0541C18.8226 38.2113 21.9175 35.0722 25.7062 35.0722C29.4949 35.0722 32.5899 38.2113 32.5899 42.0541C32.5899 45.0309 30.7222 47.5747 28.1609 48.549H28.2142Z"
          fill="#901B6A"/>
</svg>
