<svg width="60" height="60" viewBox="0 0 60 60" xmlns="http://www.w3.org/2000/svg">
  <!-- Shoe 1 (Sneaker) -->
  <path d="M8 35 Q8 32 12 32 L32 32 Q36 32 36 35 L36 38 Q36 42 32 42 L12 42 Q8 42 8 38 Z" fill="#e74c3c" stroke="#c0392b" stroke-width="1"/>
  <path d="M8 38 Q8 40 10 40 L34 40 Q36 40 36 38" fill="#c0392b"/>
  <ellipse cx="22" cy="30" rx="8" ry="3" fill="#34495e"/>
  <path d="M14 30 Q22 28 30 30" stroke="#ecf0f1" stroke-width="1" fill="none"/>
  
  <!-- Shoe 2 (High Heel) -->
  <path d="M24 15 Q24 12 28 12 L40 12 Q44 12 44 15 L44 18 Q44 22 40 22 L28 22 Q24 22 24 18 Z" fill="#8B2865" stroke="#7B1E55" stroke-width="1"/>
  <path d="M24 18 Q24 20 26 20 L42 20 Q44 20 44 18" fill="#7B1E55"/>
  <rect x="42" y="22" width="3" height="8" fill="#2c3e50"/>
  <ellipse cx="34" cy="10" rx="6" ry="2" fill="#A0336B"/>
  
  <!-- Laces -->
  <circle cx="18" cy="30" r="1" fill="#ecf0f1"/>
  <circle cx="22" cy="30" r="1" fill="#ecf0f1"/>
  <circle cx="26" cy="30" r="1" fill="#ecf0f1"/>
  
  <!-- Heel detail -->
  <ellipse cx="43.5" cy="30" rx="1.5" ry="1" fill="#2c3e50"/>
</svg> 