<svg width="60" height="60" viewBox="0 0 60 60" xmlns="http://www.w3.org/2000/svg">
  <!-- Monitor -->
  <rect x="12" y="8" width="36" height="24" rx="2" fill="#34495e" stroke="#2c3e50" stroke-width="1"/>
  <rect x="16" y="12" width="28" height="16" rx="1" fill="#3498db"/>
  
  <!-- Monitor Stand -->
  <rect x="28" y="32" width="4" height="8" fill="#34495e"/>
  <rect x="20" y="40" width="20" height="3" rx="1.5" fill="#2c3e50"/>
  
  <!-- Keyboard -->
  <rect x="16" y="46" width="28" height="6" rx="1" fill="#95a5a6" stroke="#7f8c8d" stroke-width="1"/>
  <rect x="18" y="48" width="2" height="2" rx="0.5" fill="#ecf0f1"/>
  <rect x="22" y="48" width="2" height="2" rx="0.5" fill="#ecf0f1"/>
  <rect x="26" y="48" width="2" height="2" rx="0.5" fill="#ecf0f1"/>
  <rect x="30" y="48" width="2" height="2" rx="0.5" fill="#ecf0f1"/>
  <rect x="34" y="48" width="2" height="2" rx="0.5" fill="#ecf0f1"/>
  <rect x="38" y="48" width="2" height="2" rx="0.5" fill="#ecf0f1"/>
  
  <!-- Mouse -->
  <ellipse cx="50" cy="48" rx="3" ry="4" fill="#7f8c8d" stroke="#95a5a6" stroke-width="1"/>
  <circle cx="50" cy="46" r="0.5" fill="#e74c3c"/>
</svg> 