<?xml version="1.0" encoding="UTF-8"?>
<svg id="katman_1" data-name="katman 1" xmlns="http://www.w3.org/2000/svg" viewBox="0 0 20 20">
  <defs>
    <style>
      .cls-1 {
        fill: #8f1b69;
        stroke-width: 0px;
      }
    </style>
  </defs>
  <path class="cls-1" d="m7.49,9.53c-2.8-2.68-3.17-5.66-1.12-7.98,1.78-2.01,5.03-2.09,6.92-.18,2.15,2.18,1.87,5.27-.79,8.05.3.21.59.39.86.6,1.75,1.29,2.78,2.99,2.77,5.29,0,1.24-.02,2.47,0,3.7.01.64-.15,1.01-.85,1.01-3.51-.01-7.03.01-10.54-.04-.29,0-.81-.47-.82-.74-.06-1.6-.13-3.22.06-4.8.26-2.22,1.51-3.83,3.5-4.9h0Zm-2.4,9.25h10.11c0-1.3.07-2.49-.01-3.68-.17-2.54-2.14-4.75-4.35-4.97-2.76-.28-5.16,1.2-5.69,3.84-.3,1.52-.05,3.16-.05,4.8h0Zm1.04-13.89c-.04,2.24,1.6,4.06,3.69,4.1,2.16.04,3.96-1.77,3.96-3.99,0-2.09-1.72-3.93-3.74-3.99-2.1-.06-3.88,1.7-3.91,3.88Z"/>
</svg>